Coordinates
version=1
nRows=12
nColumns=34
inDegrees=no

Units are S.I. units (second, meters, Newtons, ...)
If the header above contains a line with 'inDegrees', this indicates whether rotational values are in degrees (yes) or radians (no).

endheader
time	pelvis_tilt	pelvis_list	pelvis_rotation	pelvis_tx	pelvis_ty	pelvis_tz	hip_flexion_r	hip_adduction_r	hip_rotation_r	knee_angle_r	ankle_angle_r	subtalar_angle_r	mtp_angle_r	hip_flexion_l	hip_adduction_l	hip_rotation_l	knee_angle_l	ankle_angle_l	subtalar_angle_l	mtp_angle_l	lumbar_extension	lumbar_bending	lumbar_rotation	arm_flex_r	arm_add_r	arm_rot_r	elbow_flex_r	pro_sup_r	arm_flex_l	arm_add_l	arm_rot_l	elbow_flex_l	pro_sup_l
0	0.115202	-0.0908032	0.0210535	-0.0120577	0.912454	-0.216905	0.319701	0.0464478	-0.110707	0.0707933	-0.0351721	0.15669	0.000437293	-0.443283	-0.163313	-0.347916	0.171143	0.401662	0.111674	-0.0231739	-0.261464	0.0324528	-0.134014	-0.0644264	-0.245353	-0.112021	0.668606	1.58107	0.344405	-0.330193	0.161391	0.725454	1.81437
0.01	0.113801	-0.110064	0.0251537	0.00291025	0.916722	-0.214416	0.320531	0.0665634	-0.112879	0.0900432	-0.072014	0.12355	0.000349989	-0.441743	-0.192788	-0.343833	0.210802	0.388083	0.0887367	-0.0231447	-0.261044	0.0605565	-0.133472	-0.0620626	-0.245305	-0.114987	0.654901	1.57988	0.339668	-0.323167	0.149687	0.727077	1.81662
0.02	0.111932	-0.128964	0.0290894	0.0176904	0.920428	-0.211932	0.322127	0.0860604	-0.116877	0.110581	-0.101135	0.0946628	0.000262675	-0.435043	-0.222041	-0.336477	0.255549	0.365922	0.0601295	-0.0231155	-0.260045	0.0878813	-0.132102	-0.0597772	-0.245182	-0.11742	0.642415	1.57831	0.334087	-0.316002	0.139417	0.728772	1.81921
0.03	0.109576	-0.147503	0.0328309	0.03227	0.92361	-0.209454	0.324481	0.104937	-0.122616	0.132328	-0.12257	0.0699851	0.000175353	-0.423144	-0.251042	-0.325887	0.305373	0.335257	0.0259379	-0.0230862	-0.258452	0.114399	-0.129884	-0.057557	-0.244986	-0.119315	0.631151	1.57637	0.327673	-0.308699	0.130593	0.730536	1.82215
0.04	0.106672	-0.165652	0.0362992	0.0466331	0.926314	-0.206979	0.327547	0.123193	-0.129887	0.155054	-0.136445	0.0494229	8.80215e-05	-0.405977	-0.279697	-0.312174	0.360179	0.296377	-0.0135396	-0.0230569	-0.256243	0.140046	-0.126757	-0.0553636	-0.244723	-0.120656	0.621114	1.57408	0.320458	-0.301262	0.123243	0.732362	1.82541
0.05	0.10314	-0.183347	0.0393664	0.0607624	0.928585	-0.204504	0.331217	0.140823	-0.138374	0.178355	-0.143037	0.0328593	6.81911e-07	-0.383509	-0.307828	-0.295539	0.419705	0.249972	-0.0576705	-0.0230277	-0.253404	0.164723	-0.122624	-0.0531278	-0.244414	-0.121419	0.612315	1.57149	0.312503	-0.293694	0.117416	0.73423	1.82895
0.06	0.0989058	-0.200484	0.0418737	0.0746401	0.930477	-0.202028	0.335298	0.157802	-0.147706	0.201667	-0.142832	0.0201828	-8.66654e-05	-0.355821	-0.335143	-0.27625	0.483439	0.197295	-0.105415	-0.0229984	-0.249957	0.188295	-0.117365	-0.0507504	-0.244091	-0.121577	0.604762	1.56868	0.303903	-0.286001	0.113158	0.736109	1.83273
0.07	0.0939338	-0.216919	0.0436594	0.0882507	0.93205	-0.199556	0.33951	0.174064	-0.157495	0.224333	-0.136545	0.0112916	-0.00017402	-0.323174	-0.36123	-0.254617	0.550596	0.140254	-0.15533	-0.0229691	-0.245984	0.210589	-0.110862	-0.0481079	-0.243805	-0.1211	0.598456	1.56576	0.294784	-0.278188	0.110508	0.73795	1.8367
0.08	0.0882554	-0.23246	0.0445919	0.101582	0.933369	-0.1971	0.3435	0.189489	-0.167375	0.245678	-0.125111	0.00606799	-0.00026138	-0.286039	-0.385553	-0.230958	0.620137	0.0813887	-0.205636	-0.0229398	-0.24163	0.231397	-0.103029	-0.0450617	-0.243614	-0.119957	0.59338	1.56285	0.285294	-0.270264	0.109475	0.739688	1.84082
0.09	0.0819773	-0.24687	0.0445994	0.114625	0.934506	-0.19468	0.34687	0.203894	-0.177009	0.265097	-0.109629	0.00433493	-0.000348746	-0.24508	-0.40749	-0.205584	0.690859	0.0236931	-0.254355	-0.0229104	-0.237104	0.250476	-0.0938373	-0.0414683	-0.24358	-0.118111	0.589489	1.56008	0.275594	-0.262247	0.110034	0.741233	1.84506
0.1	0.0752744	-0.259884	0.0436927	0.127378	0.935536	-0.192321	0.349226	0.21705	-0.186098	0.282124	-0.0912749	0.00581278	-0.000436117	-0.201092	-0.426379	-0.178801	0.761491	-0.0296958	-0.299493	-0.0228811	-0.232652	0.267563	-0.0833337	-0.0371902	-0.243757	-0.115513	0.586695	1.55759	0.265837	-0.254165	0.112125	0.742479	1.84937
0.11	0.0683644	-0.271225	0.0419741	0.139839	0.936532	-0.190055	0.350225	0.228697	-0.194385	0.296476	-0.0712045	0.0100964	-0.000523492	-0.154917	-0.441588	-0.15092	0.830803	-0.0758974	-0.339245	-0.0228517	-0.228513	0.282399	-0.0716572	-0.032107	-0.244186	-0.112101	0.584866	1.55549	0.256161	-0.246066	0.115658	0.7433	1.85373
